<svg width="18" height="18" viewBox="0 0 18 18" fill="none" xmlns="http://www.w3.org/2000/svg">
<path d="M8.25038 11.6254C8.25038 12.6596 7.40969 13.5003 6.37551 13.5003C5.34134 13.5003 4.50065 12.6596 4.50065 11.6254C4.50065 10.5913 5.34134 9.75058 6.37551 9.75058C7.40969 9.75058 8.25038 10.5913 8.25038 11.6254ZM15.4776 7.20452C15.2511 7.56524 15.0299 7.91772 14.8252 8.25069H15.3719C16.0588 8.25069 16.6903 8.62566 17.0187 9.22862C17.348 9.83308 17.3217 10.5665 16.949 11.1455C14.8184 14.4595 10.9224 18.0007 6.37551 18.0007C4.67314 18.0007 3.07275 17.3378 1.86759 16.1341C0.663929 14.9297 0.000976562 13.3286 0.000976562 11.6262C0.000976562 7.07928 3.54222 3.18256 6.85623 1.05121C7.43444 0.67999 8.16938 0.652992 8.77309 0.982218C9.37605 1.31069 9.75102 1.94215 9.75102 2.6291V3.17581C10.0832 2.97107 10.4357 2.74984 10.7972 2.52336C12.3541 1.54768 13.965 0.539001 14.9339 0.159528C15.7761 -0.171198 16.697 0.0230379 17.3382 0.664241C17.9794 1.30544 18.1729 2.22713 17.8429 3.06857C17.4635 4.0375 16.454 5.64688 15.4791 7.20527L15.4776 7.20452ZM9.75027 11.6254C9.75027 9.76483 8.23613 8.25069 6.37551 8.25069C4.5149 8.25069 3.00076 9.76483 3.00076 11.6254C3.00076 13.4861 4.5149 15.0002 6.37551 15.0002C8.23613 15.0002 9.75027 13.4861 9.75027 11.6254Z" fill="#A2A2A8"/>
</svg>
