<svg width="18" height="18" viewBox="0 0 18 18" fill="none" xmlns="http://www.w3.org/2000/svg">
<path d="M11.1057 8.73375L9.00574 10.3125L6.89599 8.733L9.00499 2.9445L11.1057 8.73375ZM5.44549 8.3325L8.30149 0.492756C8.35422 0.348344 8.45006 0.223626 8.57602 0.13549C8.70199 0.0473535 8.852 5.74838e-05 9.00574 5.91633e-06C8.56193 -0.000876977 8.12349 0.0970663 7.72224 0.286727C7.321 0.476387 6.96701 0.753006 6.68599 1.09651L1.49374 7.281C1.08616 7.81291 0.829412 8.44481 0.750488 9.11025L5.44549 8.3325ZM9.71149 0.494256L12.5562 8.3325L17.2505 9.1095C17.1669 8.43532 16.9046 7.79574 16.4907 7.257L11.3255 1.10176C11.0453 0.757509 10.6919 0.480013 10.291 0.289436C9.89015 0.0988584 9.45186 -1.33558e-05 9.00799 5.91633e-06C9.16178 0.000323349 9.31175 0.0479103 9.43759 0.136319C9.56343 0.224727 9.65904 0.349684 9.71149 0.494256ZM8.25649 11.625L5.80699 9.79275L0.878738 10.6095C1.04875 11.1809 1.34972 11.7048 1.75774 12.1395L6.84874 17.1795C7.23234 17.5789 7.71994 17.863 8.25649 18V11.625ZM12.1947 9.792L9.75649 11.625V18C10.2864 17.8658 10.7682 17.5863 11.1477 17.193L16.2755 12.1118C16.6746 11.6857 16.9682 11.1719 17.1327 10.6118L12.1947 9.792Z" fill="#A2A2A8"/>
</svg>
