<svg width="18" height="18" viewBox="0 0 18 18" fill="none" xmlns="http://www.w3.org/2000/svg">
<path d="M9.49298 1.18499C9.21098 0.938988 8.78998 0.938988 8.50798 1.18499C8.27298 1.38999 2.75098 6.25199 2.75098 10.733C2.75098 14.189 5.55498 17 9.00098 17C12.447 17 15.251 14.188 15.251 10.733C15.25 6.25199 9.72798 1.38899 9.49298 1.18499ZM8.99998 15.5C7.47698 15.5 6.23798 14.258 6.23798 12.731C6.23798 10.909 8.27498 9.08099 8.50798 8.87899C8.78998 8.63299 9.21098 8.63299 9.49298 8.87899C9.72498 9.08099 11.763 10.909 11.763 12.731C11.763 14.257 10.524 15.5 9.00098 15.5H8.99998Z" fill="#A2A2A8"/>
</svg>
