<svg width="32" height="28" viewBox="0 0 32 28" fill="none" xmlns="http://www.w3.org/2000/svg">
<g clip-path="url(#clip0_65_1789)">
<path d="M14.9853 0.58721L0.160027 26.2287C-0.294509 27.0154 0.27046 28 1.17473 28H12.4213C12.8918 28 13.3288 27.7474 13.5657 27.3388L22.6372 11.6495C22.8756 11.236 22.8756 10.726 22.6372 10.3126L17.0131 0.58721C16.5601 -0.194679 15.4366 -0.194679 14.9853 0.58721Z" fill="#1E1D22"/>
<path d="M21.5776 28H30.8235C31.7278 28 32.2928 27.0138 31.8382 26.2287L27.2145 18.2328C26.7615 17.451 25.638 17.451 25.1866 18.2328L20.5629 26.2287C20.1083 27.0154 20.6733 28 21.5776 28Z" fill="#F54042"/>
</g>
<defs>
<clipPath id="clip0_65_1789">
<rect width="32" height="28" fill="white"/>
</clipPath>
</defs>
</svg>
