<svg width="147" height="38" viewBox="0 0 147 38" fill="none" xmlns="http://www.w3.org/2000/svg">
<g clip-path="url(#clip0_65_1026)">
<path d="M14.9853 3.58721L0.160027 29.2287C-0.294509 30.0154 0.27046 31 1.17473 31H12.4213C12.8918 31 13.3288 30.7474 13.5657 30.3388L22.6372 14.6495C22.8756 14.236 22.8756 13.726 22.6372 13.3126L17.0131 3.58721C16.5601 2.80532 15.4366 2.80532 14.9853 3.58721Z" fill="#1E1D22"/>
<path d="M21.5776 31H30.8235C31.7278 31 32.2928 30.0138 31.8382 29.2287L27.2145 21.2328C26.7615 20.451 25.638 20.451 25.1866 21.2328L20.5629 29.2287C20.1083 30.0154 20.6733 31 21.5776 31Z" fill="#F54042"/>
</g>
<path d="M39.636 30V13.396H33.28V9.84H49.8V13.396H43.444V30H39.636ZM55.7717 30.42C54.2503 30.42 52.9157 30.0793 51.7677 29.398C50.6197 28.7167 49.7237 27.7787 49.0797 26.584C48.445 25.38 48.1277 23.9987 48.1277 22.44C48.1277 20.8627 48.4543 19.4767 49.1077 18.282C49.761 17.078 50.6617 16.14 51.8097 15.468C52.9577 14.796 54.2783 14.46 55.7717 14.46C57.293 14.46 58.6277 14.8007 59.7757 15.482C60.933 16.1633 61.8337 17.106 62.4777 18.31C63.1217 19.5047 63.4437 20.8813 63.4437 22.44C63.4437 24.008 63.117 25.394 62.4637 26.598C61.8197 27.7927 60.919 28.7307 59.7617 29.412C58.6137 30.084 57.2837 30.42 55.7717 30.42ZM55.7717 26.864C56.9943 26.864 57.9043 26.4533 58.5017 25.632C59.1083 24.8013 59.4117 23.7373 59.4117 22.44C59.4117 21.096 59.1037 20.0227 58.4877 19.22C57.881 18.4173 56.9757 18.016 55.7717 18.016C54.941 18.016 54.2597 18.2027 53.7277 18.576C53.1957 18.9493 52.799 19.4673 52.5377 20.13C52.2857 20.7927 52.1597 21.5627 52.1597 22.44C52.1597 23.7933 52.463 24.8713 53.0697 25.674C53.6857 26.4673 54.5863 26.864 55.7717 26.864ZM73.1023 30.42C71.5997 30.42 70.3443 30.07 69.3363 29.37C68.3283 28.67 67.5677 27.718 67.0543 26.514C66.5503 25.31 66.2983 23.952 66.2983 22.44C66.2983 20.928 66.5503 19.57 67.0543 18.366C67.5583 17.162 68.3003 16.21 69.2803 15.51C70.2603 14.81 71.469 14.46 72.9063 14.46C74.353 14.46 75.613 14.8053 76.6863 15.496C77.7597 16.1867 78.5903 17.134 79.1783 18.338C79.7757 19.5327 80.0743 20.9 80.0743 22.44C80.0743 23.952 79.7803 25.31 79.1923 26.514C78.6137 27.718 77.8017 28.67 76.7563 29.37C75.711 30.07 74.493 30.42 73.1023 30.42ZM65.6543 36.72V14.88H69.0143V25.24H69.4903V36.72H65.6543ZM72.4863 27.032C73.3077 27.032 73.9797 26.8267 74.5023 26.416C75.025 26.0053 75.4123 25.4547 75.6643 24.764C75.9163 24.064 76.0423 23.2893 76.0423 22.44C76.0423 21.6 75.9117 20.8347 75.6503 20.144C75.389 19.444 74.983 18.8887 74.4323 18.478C73.891 18.058 73.1957 17.848 72.3463 17.848C71.553 17.848 70.909 18.0393 70.4143 18.422C69.929 18.8047 69.5743 19.3413 69.3503 20.032C69.1263 20.7227 69.0143 21.5253 69.0143 22.44C69.0143 23.3547 69.1263 24.1573 69.3503 24.848C69.5743 25.5387 69.9383 26.0753 70.4423 26.458C70.9557 26.8407 71.637 27.032 72.4863 27.032Z" fill="#F54042"/>
<path d="M80.3681 30L86.5281 9.84H92.2121L98.3721 30H94.4521L88.9641 12.22H89.6921L84.2881 30H80.3681ZM84.0641 25.8V22.244H94.7041V25.8H84.0641ZM107.461 30.42C105.959 30.42 104.703 30.07 103.695 29.37C102.687 28.67 101.927 27.718 101.413 26.514C100.909 25.31 100.657 23.952 100.657 22.44C100.657 20.928 100.909 19.57 101.413 18.366C101.917 17.162 102.659 16.21 103.639 15.51C104.619 14.81 105.828 14.46 107.265 14.46C108.712 14.46 109.972 14.8053 111.045 15.496C112.119 16.1867 112.949 17.134 113.537 18.338C114.135 19.5327 114.433 20.9 114.433 22.44C114.433 23.952 114.139 25.31 113.551 26.514C112.973 27.718 112.161 28.67 111.115 29.37C110.07 30.07 108.852 30.42 107.461 30.42ZM100.013 36.72V14.88H103.373V25.24H103.849V36.72H100.013ZM106.845 27.032C107.667 27.032 108.339 26.8267 108.861 26.416C109.384 26.0053 109.771 25.4547 110.023 24.764C110.275 24.064 110.401 23.2893 110.401 22.44C110.401 21.6 110.271 20.8347 110.009 20.144C109.748 19.444 109.342 18.8887 108.791 18.478C108.25 18.058 107.555 17.848 106.705 17.848C105.912 17.848 105.268 18.0393 104.773 18.422C104.288 18.8047 103.933 19.3413 103.709 20.032C103.485 20.7227 103.373 21.5253 103.373 22.44C103.373 23.3547 103.485 24.1573 103.709 24.848C103.933 25.5387 104.297 26.0753 104.801 26.458C105.315 26.8407 105.996 27.032 106.845 27.032ZM124.094 30.42C122.591 30.42 121.336 30.07 120.328 29.37C119.32 28.67 118.559 27.718 118.046 26.514C117.542 25.31 117.29 23.952 117.29 22.44C117.29 20.928 117.542 19.57 118.046 18.366C118.55 17.162 119.292 16.21 120.272 15.51C121.252 14.81 122.461 14.46 123.898 14.46C125.345 14.46 126.605 14.8053 127.678 15.496C128.751 16.1867 129.582 17.134 130.17 18.338C130.767 19.5327 131.066 20.9 131.066 22.44C131.066 23.952 130.772 25.31 130.184 26.514C129.605 27.718 128.793 28.67 127.748 29.37C126.703 30.07 125.485 30.42 124.094 30.42ZM116.646 36.72V14.88H120.006V25.24H120.482V36.72H116.646ZM123.478 27.032C124.299 27.032 124.971 26.8267 125.494 26.416C126.017 26.0053 126.404 25.4547 126.656 24.764C126.908 24.064 127.034 23.2893 127.034 22.44C127.034 21.6 126.903 20.8347 126.642 20.144C126.381 19.444 125.975 18.8887 125.424 18.478C124.883 18.058 124.187 17.848 123.338 17.848C122.545 17.848 121.901 18.0393 121.406 18.422C120.921 18.8047 120.566 19.3413 120.342 20.032C120.118 20.7227 120.006 21.5253 120.006 22.44C120.006 23.3547 120.118 24.1573 120.342 24.848C120.566 25.5387 120.93 26.0753 121.434 26.458C121.947 26.8407 122.629 27.032 123.478 27.032ZM138.805 30.42C136.901 30.42 135.361 29.9907 134.185 29.132C133.018 28.264 132.309 27.0413 132.057 25.464L135.949 24.876C136.107 25.5853 136.457 26.1407 136.999 26.542C137.549 26.9433 138.245 27.144 139.085 27.144C139.775 27.144 140.307 27.0133 140.681 26.752C141.054 26.4813 141.241 26.108 141.241 25.632C141.241 25.3333 141.166 25.0953 141.017 24.918C140.867 24.7313 140.531 24.5493 140.009 24.372C139.495 24.1947 138.693 23.9613 137.601 23.672C136.369 23.3547 135.384 23 134.647 22.608C133.909 22.216 133.377 21.7493 133.051 21.208C132.724 20.6573 132.561 19.9947 132.561 19.22C132.561 18.2493 132.808 17.4093 133.303 16.7C133.797 15.9813 134.493 15.4307 135.389 15.048C136.294 14.656 137.358 14.46 138.581 14.46C139.766 14.46 140.816 14.642 141.731 15.006C142.645 15.37 143.383 15.888 143.943 16.56C144.512 17.232 144.862 18.0253 144.993 18.94L141.101 19.64C141.035 19.08 140.793 18.6367 140.373 18.31C139.953 17.9833 139.383 17.792 138.665 17.736C137.965 17.6893 137.4 17.7827 136.971 18.016C136.551 18.2493 136.341 18.5853 136.341 19.024C136.341 19.2853 136.429 19.5047 136.607 19.682C136.793 19.8593 137.171 20.0413 137.741 20.228C138.319 20.4147 139.197 20.6573 140.373 20.956C141.521 21.2547 142.44 21.6047 143.131 22.006C143.831 22.398 144.339 22.874 144.657 23.434C144.974 23.9847 145.133 24.652 145.133 25.436C145.133 26.9853 144.573 28.2033 143.453 29.09C142.333 29.9767 140.783 30.42 138.805 30.42Z" fill="#1E1D22"/>
<defs>
<clipPath id="clip0_65_1026">
<rect width="32" height="28" fill="white" transform="translate(0 3)"/>
</clipPath>
</defs>
</svg>
