<svg width="18" height="18" viewBox="0 0 18 18" fill="none" xmlns="http://www.w3.org/2000/svg">
<path d="M15.414 8.66498C15.647 8.78198 15.923 8.76898 16.144 8.63298C16.365 8.49598 16.5 8.25498 16.5 7.99498V6.25098C16.5 4.73398 15.267 3.50098 13.75 3.50098H11.975C11.985 3.41798 12 3.33698 12 3.25098C12 2.14798 11.103 1.25098 10 1.25098C8.897 1.25098 8 2.14798 8 3.25098C8 3.33698 8.015 3.41798 8.025 3.50098H6.25C4.733 3.50098 3.5 4.73398 3.5 6.25098V8.02598C3.417 8.01498 3.336 8.00098 3.25 8.00098C2.147 8.00098 1.25 8.89798 1.25 10.001C1.25 11.104 2.147 12.001 3.25 12.001C3.336 12.001 3.417 11.986 3.5 11.976V13.751C3.5 15.268 4.733 16.501 6.25 16.501H7.994C8.254 16.501 8.495 16.366 8.632 16.146C8.768 15.925 8.781 15.648 8.665 15.416C8.556 15.197 8.5 14.974 8.5 14.751C8.5 13.924 9.173 13.251 10 13.251C10.827 13.251 11.5 13.924 11.5 14.751C11.5 14.972 11.444 15.196 11.334 15.417C11.218 15.649 11.231 15.925 11.368 16.146C11.505 16.367 11.746 16.501 12.006 16.501H13.75C15.267 16.501 16.5 15.268 16.5 13.751V12.007C16.5 11.747 16.365 11.506 16.144 11.369C15.923 11.232 15.646 11.219 15.414 11.337C14.387 11.852 13.25 11.052 13.25 10.002C13.25 8.95198 14.384 8.15198 15.414 8.66698V8.66498Z" fill="#A2A2A8"/>
</svg>
