<svg width="18" height="16" viewBox="0 0 18 16" fill="none" xmlns="http://www.w3.org/2000/svg">
<path d="M6.60896 5.124L6.664 5.62096L6.9473 5.58958L7.06463 5.32982L6.60896 5.124ZM6.60896 5.124L7.06465 5.32979L7.06469 5.32969L7.06487 5.32929L7.06558 5.32772L7.06841 5.32145L7.07954 5.29681L7.12258 5.20154L7.28281 4.84685L7.82835 3.63939C8.26439 2.67442 8.80941 1.46853 9.24613 0.503143C9.24685 0.5041 9.24761 0.50524 9.24834 0.506576L10.6642 3.63944L11.21 4.84695L11.3704 5.20165L11.4134 5.29693L11.4246 5.32158L11.4274 5.32785L11.4281 5.32942L11.4283 5.32982L11.4283 5.32992L11.884 5.124M6.60896 5.124L6.66397 5.62097L6.66386 5.62098L6.66343 5.62103L6.66171 5.62122L6.65488 5.62197L6.628 5.62495L6.52411 5.63646L6.13733 5.6793L4.82053 5.82521C3.76841 5.9418 2.45349 6.08757 1.40023 6.20449C1.39987 6.20455 1.39954 6.20462 1.39921 6.20469C2.18161 6.91864 3.16006 7.8097 3.94328 8.52262L4.92331 9.41445L5.21124 9.67638L5.28858 9.74673L5.30858 9.76493L5.31367 9.76955L5.31495 9.77071L5.31527 9.771L5.31535 9.77108L4.97896 10.141L5.31537 9.7711L5.54518 9.9801L5.45962 10.2787C5.21229 11.142 5.02252 12.1551 4.80131 13.3362C4.68039 13.9817 4.55007 14.6775 4.39582 15.4263C4.39573 15.427 4.39567 15.4276 4.39563 15.4282C5.31671 14.9047 6.46613 14.2499 7.38585 13.7256L8.53686 13.0693L8.87492 12.8765L8.96571 12.8247L8.98919 12.8113L8.99516 12.8079L8.99666 12.807L8.99704 12.8068L8.99713 12.8067L9.24496 13.241M11.884 5.124L11.829 5.62097L11.8291 5.62098L11.8295 5.62103L11.8312 5.62122L11.8381 5.62197L11.8649 5.62495L11.9688 5.63646L12.3557 5.67933L13.6728 5.82545C14.7255 5.94233 16.0411 6.08865 17.0944 6.20656C17.0938 6.20733 17.0931 6.20816 17.0923 6.209C16.31 6.92131 15.3324 7.8109 14.5497 8.5229L13.5696 9.41447L13.2817 9.67637L13.2043 9.74673L13.1843 9.76492L13.1793 9.76955L13.178 9.77071L13.1777 9.771L13.1776 9.77108L13.514 10.141M11.884 5.124L11.4283 5.32995L11.5457 5.5896L11.8289 5.62096L11.884 5.124ZM9.24496 13.241L9.49272 12.8067L9.49282 12.8068L9.4932 12.807L9.4947 12.8078L9.50067 12.8112L9.52417 12.8246L9.615 12.8764L9.95316 13.0693L11.1043 13.7258C12.0232 14.2498 13.1712 14.9044 14.0907 15.4283C14.0921 15.429 14.0934 15.4295 14.0946 15.4299C14.0946 15.4298 14.0946 15.4297 14.0946 15.4296C13.8807 14.3913 13.6133 13.0952 13.3993 12.0583L13.1314 10.761L13.0528 10.3799L13.0316 10.2776L13.0262 10.2511L13.0248 10.2444L13.0244 10.2427L13.0243 10.2423L13.0243 10.2422L13.514 10.141M9.24496 13.241L8.99716 12.8067L9.24492 12.6654L9.49269 12.8067L9.24496 13.241ZM13.514 10.141L13.0243 10.2421L12.9666 9.96293L13.1775 9.7711L13.514 10.141ZM1.3947 6.20657C1.3948 6.20649 1.39499 6.20635 1.39526 6.20619L1.39535 6.20576C1.39532 6.2058 1.39528 6.20585 1.39525 6.20591C1.3952 6.20598 1.39515 6.20604 1.39511 6.2061C1.3948 6.20649 1.39461 6.20665 1.3947 6.20657Z" stroke="#BDBDBD"/>
</svg>
