<svg width="18" height="17" viewBox="0 0 18 17" fill="none" xmlns="http://www.w3.org/2000/svg">
<path fill-rule="evenodd" clip-rule="evenodd" d="M9.25488 0.393408C9.25158 0.393343 9.24828 0.393311 9.24496 0.393311C9.04296 0.393311 8.86996 0.515311 8.79196 0.687311C7.91796 2.61931 6.60896 5.51731 6.60896 5.51731C6.60896 5.51731 3.44896 5.86731 1.34096 6.10131C1.15096 6.12431 0.98296 6.25131 0.91996 6.44431C0.85696 6.63731 0.91996 6.83831 1.05996 6.96531C2.62596 8.39431 4.97896 10.5343 4.97896 10.5343C4.97696 10.5343 4.33296 13.6473 3.90496 15.7243C3.86896 15.9123 3.93696 16.1113 4.10096 16.2303C4.26396 16.3493 4.47396 16.3513 4.63896 16.2583C6.48296 15.2103 9.24496 13.6343 9.24496 13.6343C9.24496 13.6343 9.24832 13.6362 9.25488 13.64V0.393408Z" fill="#FEA569"/>
<path d="M6.60896 5.51694L6.664 6.01391L6.9473 5.98253L7.06463 5.72277L6.60896 5.51694ZM6.60896 5.51694L7.06465 5.72273L7.06469 5.72264L7.06487 5.72224L7.06558 5.72066L7.06841 5.7144L7.07954 5.68976L7.12258 5.59448L7.28281 5.23979L7.82835 4.03233C8.26439 3.06737 8.80941 1.86148 9.24613 0.896088C9.24685 0.897044 9.24761 0.898184 9.24834 0.89952L10.6642 4.03238L11.21 5.23989L11.3704 5.5946L11.4134 5.68988L11.4246 5.71452L11.4274 5.72079L11.4281 5.72237L11.4283 5.72277L11.4283 5.72286L11.884 5.51694M6.60896 5.51694L6.66397 6.01391L6.66386 6.01392L6.66343 6.01397L6.66171 6.01416L6.65488 6.01492L6.628 6.01789L6.52411 6.0294L6.13733 6.07225L4.82053 6.21815C3.76841 6.33475 2.45349 6.48052 1.40023 6.59744C1.39987 6.5975 1.39954 6.59756 1.39921 6.59764C2.18161 7.31158 3.16006 8.20264 3.94328 8.91556L4.92331 9.8074L5.21124 10.0693L5.28858 10.1397L5.30858 10.1579L5.31367 10.1625L5.31495 10.1637L5.31527 10.1639L5.31535 10.164L4.97896 10.5339L5.31537 10.164L5.54518 10.373L5.45962 10.6717C5.21229 11.5349 5.02252 12.548 4.80131 13.7291C4.68039 14.3747 4.55007 15.0704 4.39582 15.8193C4.39573 15.8199 4.39567 15.8205 4.39563 15.8211C5.31671 15.2976 6.46613 14.6428 7.38585 14.1186L8.53686 13.4622L8.87492 13.2694L8.96571 13.2176L8.98919 13.2042L8.99516 13.2008L8.99666 13.2L8.99704 13.1997L8.99713 13.1997L9.24496 13.6339M11.884 5.51694L11.829 6.01391L11.8291 6.01392L11.8295 6.01397L11.8312 6.01416L11.8381 6.01492L11.8649 6.01789L11.9688 6.0294L12.3557 6.07228L13.6728 6.21839C14.7255 6.33528 16.0411 6.48159 17.0944 6.59951C17.0938 6.60028 17.0931 6.6011 17.0923 6.60195C16.31 7.31425 15.3324 8.20384 14.5497 8.91585L13.5696 9.80741L13.2817 10.0693L13.2043 10.1397L13.1843 10.1579L13.1793 10.1625L13.178 10.1637L13.1777 10.1639L13.1776 10.164L13.514 10.5339M11.884 5.51694L11.4283 5.7229L11.5457 5.98255L11.8289 6.01391L11.884 5.51694ZM9.24496 13.6339L9.49272 13.1996L9.49282 13.1997L9.4932 13.1999L9.4947 13.2008L9.50067 13.2042L9.52417 13.2176L9.615 13.2694L9.95316 13.4623L11.1043 14.1187C12.0232 14.6427 13.1712 15.2973 14.0907 15.8212C14.0921 15.8219 14.0934 15.8224 14.0946 15.8228C14.0946 15.8227 14.0946 15.8227 14.0946 15.8226C13.8807 14.7842 13.6133 13.4882 13.3993 12.4513L13.1314 11.1539L13.0528 10.7729L13.0316 10.6705L13.0262 10.6441L13.0248 10.6373L13.0244 10.6357L13.0243 10.6352L13.0243 10.6351L13.514 10.5339M9.24496 13.6339L8.99716 13.1997L9.24492 13.0583L9.49269 13.1996L9.24496 13.6339ZM13.514 10.5339L13.0243 10.6351L12.9666 10.3559L13.1775 10.164L13.514 10.5339ZM1.3947 6.59952C1.3948 6.59943 1.39499 6.5993 1.39526 6.59914L1.39535 6.5987C1.39532 6.59875 1.39528 6.5988 1.39525 6.59885C1.3952 6.59892 1.39515 6.59898 1.39511 6.59904C1.3948 6.59944 1.39461 6.59959 1.3947 6.59952Z" stroke="#FEA569"/>
</svg>
