<svg width="32" height="30" viewBox="0 0 32 30" fill="none" xmlns="http://www.w3.org/2000/svg">
<path d="M10.7591 9.64908C10.7591 9.64908 4.80844 10.3082 0.838838 10.7488C0.481046 10.7921 0.164683 11.0313 0.0460471 11.3947C-0.0725892 11.7582 0.0460468 12.1367 0.309683 12.3758C3.25864 15.0668 7.68961 19.0967 7.68961 19.0967C6.4671 24.9365 6.47312 24.9588 5.66715 28.87C5.59935 29.2241 5.7274 29.5988 6.03624 29.8229C6.34318 30.047 6.73864 30.0507 7.04935 29.8756C10.5218 27.9021 15.723 24.9343 15.723 24.9343C15.723 24.9343 20.926 27.9021 24.3928 29.8775C24.7092 30.0507 25.1047 30.047 25.4116 29.8229C25.7204 29.5988 25.8485 29.2241 25.7788 28.8719C24.9728 24.9588 23.762 19.0967 23.762 19.0967C23.762 19.0967 28.193 15.0668 31.1419 12.3815C31.4056 12.1348 31.5223 11.7563 31.4056 11.3947C31.2888 11.0332 30.9724 10.794 30.6147 10.7526C26.645 10.3082 20.6925 9.64908 20.6925 9.64908C20.6925 9.64908 18.2256 4.19181 16.5817 0.553636C16.4273 0.227857 16.1034 0 15.723 0C15.3426 0 15.0168 0.22974 14.8699 0.553636C13.2241 4.19181 10.7591 9.64908 10.7591 9.64908Z" fill="#FEA569"/>
</svg>
