<svg width="32" height="30" viewBox="0 0 32 30" fill="none" xmlns="http://www.w3.org/2000/svg">
<path d="M10.7591 9.64908L10.8623 10.5809L11.3935 10.522L11.6135 10.035L10.7591 9.64908ZM10.7591 9.64908L11.6135 10.0349L11.6136 10.0347L11.6139 10.034L11.6153 10.031L11.6206 10.0192L11.6416 9.97283L11.7226 9.79342L12.0243 9.1255L13.0516 6.85171C13.8735 5.03291 14.901 2.7596 15.7237 0.940828C15.7238 0.940697 15.7239 0.940444 15.7241 0.9401C15.7248 0.940791 15.7256 0.941594 15.7264 0.942518C15.7286 0.945128 15.7309 0.948359 15.733 0.952156C16.554 2.7692 17.579 5.03687 18.3993 6.85181L19.4271 9.12569L19.729 9.79364L19.8101 9.97306L19.8311 10.0195L19.8365 10.0313L19.8378 10.0342L19.8381 10.035L19.8382 10.0352L20.6925 9.64908M10.7591 9.64908L10.8622 10.5809L10.862 10.5809L10.8612 10.581L10.858 10.5814L10.8451 10.5828L10.7945 10.5884L10.5989 10.6101L9.8705 10.6907L7.39083 10.9655C5.40954 11.1851 2.93338 11.4596 0.949955 11.6797C0.946006 11.6804 0.94293 11.6815 0.94077 11.6825L0.941614 11.6833C2.41564 13.0284 4.26027 14.7083 5.73657 16.0521C6.47468 16.7239 7.12065 17.3117 7.58209 17.7315L8.12429 18.2247L8.26993 18.3572L8.3076 18.3915L8.31717 18.4002L8.31958 18.4024L8.32019 18.4029L8.32034 18.4031L7.68961 19.0967L8.32039 18.4031L8.71709 18.7639L8.60722 19.2888C7.74236 23.4202 7.49291 24.6373 7.13514 26.3829C6.98781 27.1018 6.82211 27.9103 6.5875 29.0488C6.58686 29.0532 6.58687 29.057 6.58713 29.0599C6.58752 29.0597 6.58792 29.0595 6.58831 29.0593C8.32363 28.0731 10.4905 26.8386 12.2241 25.8504C13.0912 25.3562 13.8497 24.9236 14.3916 24.6145L15.0282 24.2514L15.1991 24.1538L15.2433 24.1286L15.2546 24.1222L15.2574 24.1206L15.2581 24.1202L15.2583 24.1201L15.723 24.9343M20.6925 9.64908L30.5111 11.6847C30.5108 11.6852 30.5105 11.6857 30.5101 11.6863C30.5084 11.6891 30.5061 11.6922 30.5031 11.6952C29.0301 13.0366 27.189 14.7118 25.7152 16.0526L23.8696 17.7315L23.3274 18.2247L23.1817 18.3572L23.144 18.3915L23.1344 18.4002L23.132 18.4024L23.1314 18.4029L23.1313 18.4031L23.762 19.0967M20.6925 9.64908L20.5894 10.5809L20.5896 10.5809L20.5904 10.581L20.5937 10.5814L20.6065 10.5828L20.6571 10.5884L20.8528 10.6101L21.5813 10.6908L24.0615 10.966C26.0448 11.1862 28.5235 11.4618 30.5074 11.6839L20.6925 9.64908ZM20.6925 9.64908L20.5893 10.5809L20.0583 10.5221L19.8382 10.0352L20.6925 9.64908ZM15.723 24.9343L16.1875 24.12L16.1877 24.1201L16.1884 24.1205L16.1913 24.1221L16.2025 24.1286L16.2467 24.1538L16.4178 24.2514L17.0546 24.6145L19.2223 25.8507C20.9527 26.8375 23.1146 28.0702 24.8461 29.0567C24.8508 29.059 24.8552 29.0605 24.8589 29.0614C24.8592 29.0615 24.8595 29.0616 24.8598 29.0616C24.8599 29.0598 24.8598 29.0576 24.8594 29.0551C24.4566 27.0997 23.9531 24.659 23.55 22.7064L23.0457 20.2634L22.8975 19.5458L22.8577 19.3531L22.8474 19.3032L22.8448 19.2906L22.8441 19.2874L22.8439 19.2866L22.8439 19.2864L23.762 19.0967M15.723 24.9343L15.2584 24.1201L15.7229 23.855L16.1875 24.12L15.723 24.9343ZM23.762 19.0967L22.8439 19.2863L22.7357 18.7628L23.1312 18.4031L23.762 19.0967ZM6.58903 29.0657L6.58796 29.0649C6.58783 29.0644 6.58769 29.0638 6.58756 29.0631L6.58903 29.0657ZM15.7241 0.940031L14.8699 0.553636C15.0168 0.22974 15.3426 0 15.723 0C16.1034 0 16.4273 0.227857 16.5817 0.553636L15.7241 0.940031Z" stroke="#A2A2A8" stroke-width="1.875"/>
</svg>
