<svg width="32" height="30" viewBox="0 0 32 30" fill="none" xmlns="http://www.w3.org/2000/svg">
<path fill-rule="evenodd" clip-rule="evenodd" d="M15.7408 0.000793919C15.7346 0.000671732 15.7283 0.000610352 15.7221 0.000610352C15.3417 0.000610352 15.0159 0.230345 14.8691 0.554232C13.2233 4.19232 10.7583 9.64945 10.7583 9.64945C10.7583 9.64945 4.80783 10.3085 0.838328 10.7492C0.480546 10.7925 0.164191 11.0316 0.0455576 11.395C-0.0730756 11.7585 0.0455574 12.137 0.309187 12.3761C3.25807 15.067 7.68893 19.0968 7.68893 19.0968C7.68516 19.0968 6.47247 24.9588 5.66651 28.8699C5.59872 29.2239 5.72677 29.5987 6.03559 29.8227C6.34253 30.0468 6.73798 30.0506 7.04868 29.8755C10.5211 27.902 15.7221 24.9343 15.7221 24.9343C15.7221 24.9343 15.7284 24.9379 15.7408 24.945V0.000793919Z" fill="#FEA569"/>
<path d="M10.7588 9.64884L10.8625 10.5846L11.3959 10.5256L11.6169 10.0364L10.7588 9.64884ZM10.7588 9.64884L11.6169 10.0364L11.617 10.0362L11.6173 10.0354L11.6187 10.0324L11.624 10.0207L11.645 9.97425L11.726 9.79484L12.0277 9.12694L13.055 6.85321C13.8761 5.03612 14.9024 2.76535 15.7248 0.947457C15.7262 0.949345 15.7276 0.951511 15.729 0.953937C16.55 2.77092 17.5748 5.03846 18.3951 6.8533L19.4229 9.12713L19.7248 9.79506L19.8059 9.97448L19.8269 10.0209L19.8322 10.0327L19.8336 10.0357L19.8339 10.0364L19.834 10.0366L20.692 9.64884M10.7588 9.64884L10.8624 10.5847L10.8622 10.5847L10.8614 10.5848L10.8581 10.5851L10.8453 10.5865L10.7947 10.5922L10.599 10.6138L9.8707 10.6945L7.39109 10.9693C5.40988 11.1888 2.93385 11.4633 0.950486 11.6835C0.949796 11.6836 0.949138 11.6837 0.948514 11.6839C2.42181 13.0283 4.2643 14.7062 5.73916 16.0487C6.47725 16.7205 7.1232 17.3083 7.58462 17.728L8.12681 18.2213L8.27245 18.3537L8.31012 18.388L8.31969 18.3967L8.3221 18.3989L8.3227 18.3995L8.32286 18.3996L7.68941 19.0962L8.32291 18.3996L8.75564 18.7932L8.59453 19.3555C8.12878 20.9811 7.77145 22.8889 7.35488 25.1129C7.12719 26.3285 6.8818 27.6386 6.59133 29.0488C6.59115 29.05 6.59103 29.0512 6.59096 29.0523C8.32542 28.0666 10.4899 26.8335 12.2217 25.8463C13.0888 25.352 13.8474 24.9194 14.3892 24.6104L15.0258 24.2473L15.1967 24.1497L15.2409 24.1245L15.2522 24.1181L15.255 24.1165L15.2557 24.1161L15.2559 24.116L15.7226 24.9337M20.692 9.64884L20.5884 10.5847L20.5886 10.5847L20.5895 10.5848L20.5927 10.5851L20.6056 10.5866L20.6562 10.5922L20.8518 10.6138L21.5803 10.6946L24.0605 10.9697C26.0428 11.1898 28.5201 11.4653 30.5035 11.6874C30.5024 11.6889 30.5011 11.6904 30.4995 11.692C29.0265 13.0333 27.1856 14.7085 25.7118 16.0492L23.8663 17.7281L23.324 18.2213L23.1784 18.3537L23.1407 18.388L23.1311 18.3967L23.1287 18.3989L23.1281 18.3995L23.128 18.3996L23.7614 19.0962M20.692 9.64884L19.834 10.0367L20.0551 10.5256L20.5884 10.5847L20.692 9.64884ZM15.7226 24.9337L16.1891 24.1159L16.1893 24.116L16.19 24.1164L16.1929 24.118L16.2041 24.1244L16.2483 24.1497L16.4194 24.2472L17.0562 24.6104L19.2238 25.8466C20.9542 26.8333 23.116 28.0659 24.8474 29.0524C24.85 29.0537 24.8525 29.0547 24.8548 29.0555C24.8548 29.0553 24.8548 29.0552 24.8547 29.055C24.452 27.0998 23.9485 24.6592 23.5454 22.7066L23.0411 20.2637L22.8929 19.5461L22.8531 19.3534L22.8428 19.3036L22.8402 19.2909L22.8395 19.2877L22.8394 19.2869L22.8393 19.2867L23.7614 19.0962M15.7226 24.9337L15.256 24.1159L15.7225 23.8497L16.1891 24.1158L15.7226 24.9337ZM23.7614 19.0962L22.8393 19.2866L22.7307 18.7609L23.1279 18.3996L23.7614 19.0962Z" stroke="#FEA569" stroke-width="1.88307"/>
</svg>
