<svg width="18" height="18" viewBox="0 0 18 18" fill="none" xmlns="http://www.w3.org/2000/svg">
<path fill-rule="evenodd" clip-rule="evenodd" d="M2.58479 13.6456C2.45744 13.5513 2.38232 13.4023 2.38232 13.2438V10.6871C2.38232 7.77963 2.40379 4.46373 4.7594 2.75943C5.77576 2.02409 7.15986 1.49573 8.99995 1.49573C10.84 1.49573 12.2241 2.02409 13.2405 2.75943C15.5961 4.46373 15.6176 7.77963 15.6176 10.6871V13.2438C15.6176 13.4023 15.5425 13.5513 15.4151 13.6456L11.6882 16.4052C11.3582 16.6495 10.8907 16.414 10.8907 16.0034V11.7969C10.8907 11.6116 10.9931 11.4415 11.1569 11.3549L12.5152 10.6365C12.679 10.5499 12.7814 10.3798 12.7814 10.1945V8.73196C12.7814 8.37884 12.4253 8.13699 12.0971 8.26719L9.18431 9.4226C9.06589 9.46957 8.93401 9.46957 8.81559 9.4226L5.90281 8.26719C5.57457 8.13699 5.21845 8.37884 5.21845 8.73196V10.1945C5.21845 10.3798 5.3209 10.5499 5.48468 10.6365L6.84296 11.3549C7.00674 11.4415 7.1092 11.6116 7.1092 11.7969V16.0034C7.1092 16.414 6.64165 16.6495 6.31166 16.4052L2.58479 13.6456Z" fill="#A2A2A8"/>
</svg>
