<svg width="18" height="18" viewBox="0 0 18 18" fill="none" xmlns="http://www.w3.org/2000/svg">
<path d="M3.504 17H1.75C1.336 17 1 16.664 1 16.25V14.496C1 13.515 1.578 12.619 2.473 12.214C2.848 12.043 3.294 12.21 3.465 12.588C3.636 12.965 3.468 13.41 3.091 13.58C2.732 13.743 2.5 14.102 2.5 14.496V15.5H3.504C3.898 15.5 4.257 15.268 4.42 14.909C4.59 14.532 5.036 14.365 5.412 14.535C5.789 14.706 5.957 15.15 5.786 15.527C5.381 16.422 4.485 17 3.504 17Z" fill="#A2A2A8"/>
<path d="M13.775 10.712C17.411 6.71801 17.0111 2.21501 16.9501 1.70601C16.909 1.36101 16.638 1.09001 16.293 1.04901C15.782 0.986012 11.282 0.588012 7.28705 4.22401L6.27405 4.04301C4.73805 3.77001 3.16705 4.41301 2.26605 5.68401L0.388049 8.33601C0.197049 8.60601 0.205049 8.96801 0.407049 9.22901C0.553049 9.41701 0.773049 9.52001 1.00005 9.52001C1.09005 9.52001 1.18105 9.50401 1.26805 9.47101C1.28105 9.46601 2.33605 9.08001 3.90405 9.14201C3.73405 9.58001 3.61305 9.96701 3.52705 10.281C3.45605 10.541 3.52905 10.819 3.72005 11.01L6.99205 14.282C7.13505 14.425 7.32605 14.502 7.52205 14.502C7.58805 14.502 7.65505 14.493 7.72005 14.475C8.03305 14.389 8.42005 14.268 8.85705 14.098C8.91505 15.653 8.53305 16.723 8.52905 16.734C8.41105 17.043 8.50905 17.392 8.77005 17.594C8.90505 17.698 9.06705 17.751 9.22905 17.751C9.38105 17.751 9.53305 17.705 9.66305 17.613L12.317 15.733C13.587 14.834 14.23 13.262 13.956 11.73L13.774 10.714L13.775 10.712ZM11.25 5.00001C12.216 5.00001 13 5.78301 13 6.75001C13 7.71701 12.216 8.50001 11.25 8.50001C10.284 8.50001 9.50005 7.71701 9.50005 6.75001C9.50005 5.78301 10.284 5.00001 11.25 5.00001ZM2.70005 7.66801L3.49105 6.55201C4.05705 5.75301 5.04205 5.34601 6.01205 5.52001L6.04605 5.52601C5.43105 6.26601 4.94005 7.00801 4.56905 7.69901C3.88105 7.63201 3.23805 7.62001 2.70105 7.66701L2.70005 7.66801ZM11.451 14.508L10.332 15.3C10.38 14.764 10.368 14.12 10.3 13.432C10.991 13.061 11.733 12.57 12.473 11.955L12.48 11.993C12.652 12.956 12.248 13.943 11.45 14.508H11.451Z" fill="#A2A2A8"/>
</svg>
